<svg  width="240" height="240" version="1.1" xmlns="http://www.w3.org/2000/svg" xmlns:xlink="http://www.w3.org/1999/xlink">
    <path d="M38.5,120 C38.5,75 75,38.5 120,38.5 C165,38.5 201.5,75 201.5,120 C201.5,165 165,201.5 120,201.5 C75,201.5 38.5,165 38.5,120 M65,120 C65,89.5 89.5,65 120,65 C131.5,65 141.5,68.5 150.5,74 L72,147 C67.5,139 65,130 65,120 M168,93 C172.5,101 175,110 175,120 C175,150.5 150.5,175 120,175 C108.5,175 98.5,171.5 89.5,166 C89.5,166 150.5,109.5 168,93" style="stroke-width:4;stroke:#ddd;fill-rule:evenodd;fill:#eee;fill-opacity:1;"/>
</svg>
